<svg width="600" height="500" xmlns="http://www.w3.org/2000/svg">
    <g>
        <title>Layer 1</title>
        <line stroke-width="4" stroke-linejoin="undefined" stroke-linecap="undefined" stroke="white" fill="none" y2="198.086" y1="198.086" x2="500.5" x1="99.5" id="svg_3"/>
        <rect stroke-width="21" stroke="white" fill="none" y="194.281" x="150" height="31.304" width="1.739" id="svg_8"/>
        <rect stroke-width="21" stroke="white" fill="none" y="195" x="448.764" height="31.304" width="1.739" id="svg_9"/>
        <g stroke-width="4" id="svg_13">
            <line stroke-linejoin="undefined" stroke-linecap="undefined" stroke="white" fill="none" y2="198.086" y1="98.086" x2="99.5" x1="299.5" id="svg_1"/>
            <line stroke-linejoin="undefined" stroke-linecap="undefined" stroke="white" fill="none" y2="198.086" y1="98.086" x2="499.5" x1="299.5" id="svg_2"/>
            <path opacity="undefined" d="m300,97.91332c-12.1547,0 -22,-9.8453 -22,-22c0,-12.1547 9.8453,-22 22,-22c12.1547,0 22,9.8453 22,22c0,12.1547 -9.8453,22 -22,22z" stroke="white" fill="none" id="svg_22"/>
            <line stroke="white" fill="none" y2="35.476" y1="88.954" x2="406.304" x1="193.696" id="svg_7"/>
        </g>
        <ellipse ry="33.814" rx="35.613" stroke="white" fill="none" cy="242.464" cx="320.524" id="svg_16"/>
        <line stroke="white" fill="none" y2="277.717" y1="365.49" x2="320.164" x1="315.128" id="svg_17"/>
    </g>

</svg>