<svg xmlns="http://www.w3.org/2000/svg" width="600" height="500">
    <g>
        <title>Layer 1</title>
        <line id="svg_3" x1="99.5" x2="500.5" y1="198.086" y2="198.086" fill="none" stroke="white" stroke-linecap="undefined" stroke-linejoin="undefined" stroke-width="4"/>
        <rect id="svg_8" width="1.739" height="31.304" x="150" y="194.281" fill="none" stroke="white" stroke-width="21"/>
        <rect id="svg_9" width="1.739" height="31.304" x="448.764" y="195" fill="none" stroke="white" stroke-width="21"/>
        <g id="svg_13" stroke-width="4">
            <line id="svg_1" x1="299.5" x2="99.5" y1="98.086" y2="198.086" fill="none" stroke="white" stroke-linecap="undefined" stroke-linejoin="undefined"/>
            <line id="svg_2" x1="299.5" x2="499.5" y1="98.086" y2="198.086" fill="none" stroke="white" stroke-linecap="undefined" stroke-linejoin="undefined"/>
            <path id="svg_22" fill="none" stroke="white" d="m300,97.91332c-12.1547,0 -22,-9.8453 -22,-22c0,-12.1547 9.8453,-22 22,-22c12.1547,0 22,9.8453 22,22c0,12.1547 -9.8453,22 -22,22z" opacity="undefined"/>
            <line id="svg_7" x1="193.696" x2="406.304" y1="88.954" y2="35.476" fill="none" stroke="white"/>
        </g>
        <line id="svg_14" x1="163.325" x2="294.264" y1="228.075" y2="286.35" fill="none" stroke="white"/>
        <line id="svg_15" x1="445.348" x2="350.381" y1="226.636" y2="282.753" fill="none" stroke="white"/>
        <ellipse id="svg_16" cx="320.524" cy="242.464" fill="none" stroke="white" rx="35.613" ry="33.814"/>
        <line id="svg_17" x1="315.128" x2="320.164" y1="365.49" y2="277.717" fill="none" stroke="white"/>
        <line id="svg_18" x1="214.405" x2="314.409" y1="410.095" y2="364.051" fill="none" stroke="white"/>
        <line id="svg_19" x1="443.909" x2="313.689" y1="423.045" y2="363.331" fill="none" stroke="white"/>
        <line id="svg_20" x1="294.119" x2="353.114" y1="286.543" y2="282.227" fill="none" stroke="white"/>
    </g>
</svg>